<?xml version="1.0" encoding="UTF-8" standalone="no"?>
<!-- Created with Inkscape (http://www.inkscape.org/) -->

<svg
   version="1.1"
   id="svg1032"
   xml:space="preserve"
   width="483.78"
   height="362.83466"
   viewBox="0 0 483.78 362.83466"
   sodipodi:docname="main.svg"
   inkscape:version="1.1 (c68e22c387, 2021-05-23)"
   xmlns:inkscape="http://www.inkscape.org/namespaces/inkscape"
   xmlns:sodipodi="http://sodipodi.sourceforge.net/DTD/sodipodi-0.dtd"
   xmlns="http://www.w3.org/2000/svg"
   xmlns:svg="http://www.w3.org/2000/svg"><defs
     id="defs1036"><clipPath
       clipPathUnits="userSpaceOnUse"
       id="clipPath1070"><path
         d="M 0,0 H 581.443 V 453.95 H 0 Z"
         id="path1068" /></clipPath><clipPath
       clipPathUnits="userSpaceOnUse"
       id="clipPath1082"><path
         d="M 52.1561,135.219 H 506.107 V 716.663 H 52.1561 Z"
         id="path1080" /></clipPath><clipPath
       clipPathUnits="userSpaceOnUse"
       id="clipPath1398"><path
         d="M 0,0 H 599.794 V 452.984 H 0 Z"
         id="path1396" /></clipPath><clipPath
       clipPathUnits="userSpaceOnUse"
       id="clipPath1410"><path
         d="M 52.1561,122.663 H 505.141 V 722.458 H 52.1561 Z"
         id="path1408" /></clipPath></defs><sodipodi:namedview
     id="namedview1034"
     pagecolor="#ffffff"
     bordercolor="#666666"
     borderopacity="1.0"
     inkscape:pageshadow="2"
     inkscape:pageopacity="0.0"
     inkscape:pagecheckerboard="0"
     showgrid="false"
     inkscape:zoom="1.5239931"
     inkscape:cx="317.91483"
     inkscape:cy="202.75683"
     inkscape:window-width="1920"
     inkscape:window-height="986"
     inkscape:window-x="1363"
     inkscape:window-y="1609"
     inkscape:window-maximized="1"
     inkscape:current-layer="g1038" /><g
     id="g1038"
     inkscape:groupmode="layer"
     inkscape:label="Lecture 10H - Intro to NL Geometry I"
     transform="matrix(1.3333333,0,0,-1.3333333,0,362.83467)"><g
       id="g1390"
       transform="matrix(0.40451921,0,0,0.40451921,58.209412,46.850732)"><g
         id="g1392"><g
           id="g1394"
           clip-path="url(#clipPath1398)"><g
             id="g1400"><g
               id="g1402"
               transform="translate(-52.156,-122.663)"><g
                 id="g1404"
                 transform="rotate(-90,278.64855,349.15545)"><g
                   id="g1406"
                   clip-path="url(#clipPath1410)"><g
                     id="g1412"><g
                       id="g1414"
                       transform="translate(219.581,650.874)"><path
                         d="M 0,0 C -22.699,-8.103 -44.644,-17.79 -65.704,-28.931"
                         style="fill:none;stroke:#231f20;stroke-width:2;stroke-linecap:butt;stroke-linejoin:miter;stroke-miterlimit:10;stroke-dasharray:none;stroke-opacity:1"
                         id="path1416" /></g><g
                       id="g1418"
                       transform="translate(154.428,626.395)"><path
                         d="M 0,0 -10.668,-9.954 3.548,-6.67 0,0"
                         style="fill:#231f20;fill-opacity:1;fill-rule:nonzero;stroke:none"
                         id="path1420" /></g><g
                       id="g1422"
                       transform="translate(390.685,177.976)"><path
                         d="M 0,0 -1.488,2.605"
                         style="fill:none;stroke:#231f20;stroke-width:2;stroke-linecap:butt;stroke-linejoin:miter;stroke-miterlimit:10;stroke-dasharray:none;stroke-opacity:1"
                         id="path1424" /></g><g
                       id="g1426"
                       transform="translate(387.714,183.177)"><path
                         d="M 0,0 -1.236,2.163"
                         style="fill:none;stroke:#231f20;stroke-width:2;stroke-linecap:butt;stroke-linejoin:miter;stroke-miterlimit:10;stroke-dasharray:0.997, 2.99;stroke-dashoffset:0;stroke-opacity:1"
                         id="path1428" /></g><g
                       id="g1430"
                       transform="translate(385.736,186.638)"><path
                         d="M 0,0 -269.145,471.199"
                         style="fill:none;stroke:#231f20;stroke-width:2;stroke-linecap:butt;stroke-linejoin:miter;stroke-miterlimit:10;stroke-dasharray:5.98, 2.99, 0.997, 2.99;stroke-dashoffset:0;stroke-opacity:1"
                         id="path1432" /></g><g
                       id="g1434"
                       transform="translate(115.849,659.135)"><path
                         d="M 0,0 -1.488,2.605"
                         style="fill:none;stroke:#231f20;stroke-width:2;stroke-linecap:butt;stroke-linejoin:miter;stroke-miterlimit:10;stroke-dasharray:none;stroke-opacity:1"
                         id="path1436" /></g><g
                       id="g1438"
                       transform="translate(392.302,177.106)"><path
                         d="M 0,0 -0.513,1.411"
                         style="fill:none;stroke:#231f20;stroke-width:2;stroke-linecap:butt;stroke-linejoin:miter;stroke-miterlimit:10;stroke-dasharray:none;stroke-opacity:1"
                         id="path1440" /></g><g
                       id="g1442"
                       transform="translate(390.765,181.331)"><path
                         d="M 0,0 -169.538,465.802"
                         style="fill:none;stroke:#231f20;stroke-width:2;stroke-linecap:butt;stroke-linejoin:miter;stroke-miterlimit:10;stroke-dasharray:2.995, 2.995;stroke-dashoffset:0;stroke-opacity:1"
                         id="path1444" /></g><g
                       id="g1446"
                       transform="translate(220.714,648.539)"><path
                         d="M 0,0 -0.513,1.41"
                         style="fill:none;stroke:#231f20;stroke-width:2;stroke-linecap:butt;stroke-linejoin:miter;stroke-miterlimit:10;stroke-dasharray:none;stroke-opacity:1"
                         id="path1448" /></g><g
                       id="g1450"
                       transform="translate(453.116,171.632)"><path
                         d="M 0,0 -52.234,5.861"
                         style="fill:none;stroke:#231f20;stroke-width:1;stroke-linecap:butt;stroke-linejoin:miter;stroke-miterlimit:10;stroke-dasharray:none;stroke-opacity:1"
                         id="path1452" /></g><g
                       id="g1454"
                       transform="translate(403.175,180.159)"><path
                         d="M 0,0 -11.097,-1.678 -0.648,-5.773 0,0"
                         style="fill:#231f20;fill-opacity:1;fill-rule:nonzero;stroke:none"
                         id="path1456" /></g><g
                       id="g1458"
                       transform="translate(281.202,644.949)"><path
                         d="M 0,0 -158.025,15.905"
                         style="fill:none;stroke:#231f20;stroke-width:1;stroke-linecap:butt;stroke-linejoin:miter;stroke-miterlimit:10;stroke-dasharray:none;stroke-opacity:1"
                         id="path1460" /></g><g
                       id="g1462"
                       transform="translate(125.438,663.545)"><path
                         d="M 0,0 -11.077,-1.805 -0.581,-5.781 0,0"
                         style="fill:#231f20;fill-opacity:1;fill-rule:nonzero;stroke:none"
                         id="path1464" /></g><g
                       id="g1466"
                       transform="translate(453.302,172.106)"><path
                         d="M 0,0 -172.1,472.843"
                         style="fill:none;stroke:#a7a9ac;stroke-width:4;stroke-linecap:butt;stroke-linejoin:miter;stroke-miterlimit:10;stroke-dasharray:none;stroke-opacity:1"
                         id="path1468" /></g><g
                       id="g1470"
                       transform="translate(113.385,663.43)"><path
                         d="M 0,0 C 1.484,0.539 3.123,-0.227 3.663,-1.713 4.203,-3.198 3.441,-4.838 1.957,-5.378 0.469,-5.919 -1.172,-5.151 -1.711,-3.668 -2.251,-2.184 -1.487,-0.542 0,0"
                         style="fill:#231f20;fill-opacity:1;fill-rule:nonzero;stroke:none"
                         id="path1472" /></g><g
                       id="g1474"
                       transform="translate(113.385,663.43)"><path
                         d="M 0,0 C 1.484,0.539 3.123,-0.227 3.663,-1.713 4.203,-3.198 3.441,-4.838 1.957,-5.378 0.469,-5.919 -1.172,-5.151 -1.711,-3.668 -2.251,-2.184 -1.487,-0.542 0,0 Z"
                         style="fill:none;stroke:#231f20;stroke-width:2;stroke-linecap:butt;stroke-linejoin:miter;stroke-miterlimit:10;stroke-dasharray:none;stroke-opacity:1"
                         id="path1476" /></g><g
                       id="g1478"
                       transform="translate(280.224,647.639)"><path
                         d="M 0,0 C 1.486,0.539 3.124,-0.227 3.664,-1.712 4.205,-3.198 3.441,-4.838 1.958,-5.379 0.471,-5.92 -1.169,-5.153 -1.71,-3.666 -2.25,-2.183 -1.486,-0.541 0,0"
                         style="fill:#a7a9ac;fill-opacity:1;fill-rule:nonzero;stroke:none"
                         id="path1480" /></g><g
                       id="g1482"
                       transform="translate(280.224,647.639)"><path
                         d="M 0,0 C 1.486,0.539 3.124,-0.227 3.664,-1.712 4.205,-3.198 3.441,-4.838 1.958,-5.379 0.471,-5.92 -1.169,-5.153 -1.71,-3.666 -2.25,-2.183 -1.486,-0.541 0,0 Z"
                         style="fill:none;stroke:#a7a9ac;stroke-width:2;stroke-linecap:butt;stroke-linejoin:miter;stroke-miterlimit:10;stroke-dasharray:none;stroke-opacity:1"
                         id="path1484" /></g><g
                       id="g1486"
                       transform="translate(219.224,653.563)"><path
                         d="M 0,0 C 1.485,0.539 3.123,-0.226 3.664,-1.711 4.205,-3.197 3.441,-4.836 1.957,-5.378 0.47,-5.918 -1.17,-5.152 -1.71,-3.666 -2.251,-2.182 -1.487,-0.54 0,0"
                         style="fill:#a7a9ac;fill-opacity:1;fill-rule:nonzero;stroke:none"
                         id="path1488" /></g><g
                       id="g1490"
                       transform="translate(219.224,653.563)"><path
                         d="M 0,0 C 1.485,0.539 3.123,-0.226 3.664,-1.711 4.205,-3.197 3.441,-4.836 1.957,-5.378 0.47,-5.918 -1.17,-5.152 -1.71,-3.666 -2.251,-2.182 -1.487,-0.54 0,0 Z"
                         style="fill:none;stroke:#a7a9ac;stroke-width:2;stroke-linecap:butt;stroke-linejoin:miter;stroke-miterlimit:10;stroke-dasharray:none;stroke-opacity:1"
                         id="path1492" /></g><g
                       id="g1494"
                       transform="translate(452.142,174.323)"><path
                         d="M 0,0 C 1.484,0.539 3.121,-0.226 3.663,-1.712 4.203,-3.198 3.442,-4.837 1.955,-5.377 0.468,-5.921 -1.171,-5.153 -1.712,-3.668 -2.252,-2.182 -1.488,-0.541 0,0"
                         style="fill:#a7a9ac;fill-opacity:1;fill-rule:nonzero;stroke:none"
                         id="path1496" /></g><g
                       id="g1498"
                       transform="translate(452.142,174.323)"><path
                         d="M 0,0 C 1.484,0.539 3.121,-0.226 3.663,-1.712 4.203,-3.198 3.442,-4.837 1.955,-5.377 0.468,-5.921 -1.171,-5.153 -1.712,-3.668 -2.252,-2.182 -1.488,-0.541 0,0 Z"
                         style="fill:none;stroke:#a7a9ac;stroke-width:2;stroke-linecap:butt;stroke-linejoin:miter;stroke-miterlimit:10;stroke-dasharray:none;stroke-opacity:1"
                         id="path1500" /></g><g
                       id="g1502"
                       transform="translate(493.63,195.707)"><path
                         d="M 0,0 -166.46,457.349"
                         style="fill:none;stroke:#231f20;stroke-width:1;stroke-linecap:butt;stroke-linejoin:miter;stroke-miterlimit:10;stroke-dasharray:none;stroke-opacity:1"
                         id="path1504" /></g><g
                       id="g1506"
                       transform="translate(495.683,198.562)"><path
                         d="M 0,0 0.978,-11.18 -5.46,-1.987 0,0"
                         style="fill:#231f20;fill-opacity:1;fill-rule:nonzero;stroke:none"
                         id="path1508" /></g><g
                       id="g1510"
                       transform="translate(330.578,652.188)"><path
                         d="M 0,0 -6.438,9.193 -5.46,-1.989 0,0"
                         style="fill:#231f20;fill-opacity:1;fill-rule:nonzero;stroke:none"
                         id="path1512" /></g><g
                       id="g1514"
                       transform="translate(317.529,658.273)"><path
                         d="M 0,0 14.906,5.425"
                         style="fill:none;stroke:#231f20;stroke-width:1;stroke-linecap:butt;stroke-linejoin:miter;stroke-miterlimit:10;stroke-dasharray:none;stroke-opacity:1"
                         id="path1516" /></g><g
                       id="g1518"
                       transform="translate(489.177,184.758)"><path
                         d="M 0,0 14.905,5.423"
                         style="fill:none;stroke:#231f20;stroke-width:1;stroke-linecap:butt;stroke-linejoin:miter;stroke-miterlimit:10;stroke-dasharray:none;stroke-opacity:1"
                         id="path1520" /></g><text
                       transform="matrix(-0.34202106,0.93969229,0.93969229,0.34202106,476.132,176.2768)"
                       style="font-style:italic;font-variant:normal;font-weight:normal;font-stretch:normal;font-size:24px;font-family:'Times New Roman';-inkscape-font-specification:TimesNewRomanPS-ItalicMT;writing-mode:lr-tb;fill:#231f20;fill-opacity:1;fill-rule:nonzero;stroke:none"
                       id="text1524"><tspan
                         x="0 504.19647"
                         y="0"
                         sodipodi:role="line"
                         id="tspan1522">ij</tspan></text><g
                       id="g1526"
                       transform="translate(96.347,599.835)"><path
                         d="M 0,0 -19.846,34.373"
                         style="fill:none;stroke:#231f20;stroke-width:1;stroke-linecap:butt;stroke-linejoin:miter;stroke-miterlimit:10;stroke-dasharray:none;stroke-opacity:1"
                         id="path1528" /></g><g
                       id="g1530"
                       transform="translate(97.567,602.37)"><path
                         d="M 0,0 2.324,-8.673 -4.025,-2.326 0,0"
                         style="fill:#231f20;fill-opacity:1;fill-rule:nonzero;stroke:none"
                         id="path1532" /></g><g
                       id="g1534"
                       transform="translate(79.306,633.999)"><path
                         d="M 0,0 -6.349,6.348 -4.025,-2.325 0,0"
                         style="fill:#231f20;fill-opacity:1;fill-rule:nonzero;stroke:none"
                         id="path1536" /></g><g
                       id="g1538"
                       transform="translate(92.939,589.684)"><path
                         d="M 0,0 17.43,10.06"
                         style="fill:none;stroke:#231f20;stroke-width:1;stroke-linecap:butt;stroke-linejoin:miter;stroke-miterlimit:10;stroke-dasharray:none;stroke-opacity:1"
                         id="path1540" /></g><g
                       id="g1542"
                       transform="translate(65.63,635.984)"><path
                         d="M 0,0 17.429,10.062"
                         style="fill:none;stroke:#231f20;stroke-width:1;stroke-linecap:butt;stroke-linejoin:miter;stroke-miterlimit:10;stroke-dasharray:none;stroke-opacity:1"
                         id="path1544" /></g><g
                       id="g1546"
                       transform="translate(391.612,178.312)"><path
                         d="M 0,0 -125.877,44.51"
                         style="fill:#ffffff;fill-opacity:1;fill-rule:nonzero;stroke:none"
                         id="path1548" /></g><g
                       id="g1550"
                       transform="translate(391.612,178.312)"><path
                         d="M 0,0 -125.877,44.51"
                         style="fill:none;stroke:#231f20;stroke-width:1;stroke-linecap:butt;stroke-linejoin:miter;stroke-miterlimit:10;stroke-dasharray:none;stroke-opacity:1"
                         id="path1552" /></g><g
                       id="g1554"
                       transform="translate(113.339,661.552)"><path
                         d="M 0,0 114.317,-65.835"
                         style="fill:#ffffff;fill-opacity:1;fill-rule:nonzero;stroke:none"
                         id="path1556" /></g><g
                       id="g1558"
                       transform="translate(113.339,661.552)"><path
                         d="M 0,0 114.317,-65.835"
                         style="fill:none;stroke:#231f20;stroke-width:1;stroke-linecap:butt;stroke-linejoin:miter;stroke-miterlimit:10;stroke-dasharray:none;stroke-opacity:1"
                         id="path1560" /></g><g
                       id="g1562"
                       transform="translate(302.343,220.941)"><path
                         d="M 0,0 C 9.416,15.742 23.053,29.234 40.356,38.601"
                         style="fill:none;stroke:#231f20;stroke-width:1;stroke-linecap:butt;stroke-linejoin:miter;stroke-miterlimit:10;stroke-dasharray:none;stroke-opacity:1"
                         id="path1564" /></g><g
                       id="g1566"
                       transform="translate(306.653,221.292)"><path
                         d="M 0,0 -9.301,-9.739 -6.117,3.347 0,0"
                         style="fill:#231f20;fill-opacity:1;fill-rule:nonzero;stroke:none"
                         id="path1568" /></g><g
                       id="g1570"
                       transform="translate(218.634,588.77)"><path
                         d="M 0,0 C -9.637,-15.607 -23.465,-28.905 -40.899,-38.025"
                         style="fill:none;stroke:#231f20;stroke-width:1;stroke-linecap:butt;stroke-linejoin:miter;stroke-miterlimit:10;stroke-dasharray:none;stroke-opacity:1"
                         id="path1572" /></g><g
                       id="g1574"
                       transform="translate(214.321,588.48)"><path
                         d="M 0,0 9.439,9.607 6.069,-3.433 0,0"
                         style="fill:#231f20;fill-opacity:1;fill-rule:nonzero;stroke:none"
                         id="path1576" /></g><g
                       id="g1578"
                       transform="translate(310.809,337.237)"><path
                         d="M 0,0 C 6.125,3.835 13.196,6.369 20.866,7.176"
                         style="fill:none;stroke:#231f20;stroke-width:1;stroke-linecap:butt;stroke-linejoin:miter;stroke-miterlimit:10;stroke-dasharray:none;stroke-opacity:1"
                         id="path1580" /></g><g
                       id="g1582"
                       transform="translate(314.196,335.987)"><path
                         d="M 0,0 -10.442,-4.114 -3.457,4.67 0,0"
                         style="fill:#231f20;fill-opacity:1;fill-rule:nonzero;stroke:none"
                         id="path1584" /></g><g
                       id="g1586"
                       transform="translate(390.448,179.711)"><path
                         d="M 0,0 -6.689,2.485 C -222.646,87.464 -81.745,377.764 -271.772,478.07 l -5.982,3.014"
                         style="fill:none;stroke:#231f20;stroke-width:4;stroke-linecap:butt;stroke-linejoin:miter;stroke-miterlimit:10;stroke-dasharray:none;stroke-opacity:1"
                         id="path1588" /></g><g
                       id="g1590"
                       transform="translate(390.53,180.963)"><path
                         d="M 0,0 C 1.484,0.54 3.122,-0.227 3.662,-1.712 4.203,-3.198 3.441,-4.839 1.956,-5.378 0.47,-5.919 -1.171,-5.152 -1.71,-3.666 -2.252,-2.182 -1.487,-0.541 0,0"
                         style="fill:#231f20;fill-opacity:1;fill-rule:nonzero;stroke:none"
                         id="path1592" /></g><g
                       id="g1594"
                       transform="translate(390.53,180.963)"><path
                         d="M 0,0 C 1.484,0.54 3.122,-0.227 3.662,-1.712 4.203,-3.198 3.441,-4.839 1.956,-5.378 0.47,-5.919 -1.171,-5.152 -1.71,-3.666 -2.252,-2.182 -1.487,-0.541 0,0 Z"
                         style="fill:none;stroke:#231f20;stroke-width:2;stroke-linecap:butt;stroke-linejoin:miter;stroke-miterlimit:10;stroke-dasharray:none;stroke-opacity:1"
                         id="path1596" /></g><g
                       id="g1598"
                       transform="translate(139.398,617.896)"><path
                         d="M 0,0 C 1.369,0.79 3.114,0.321 3.905,-1.05 4.693,-2.417 4.229,-4.167 2.861,-4.956 1.491,-5.748 -0.257,-5.277 -1.047,-3.907 -1.837,-2.54 -1.37,-0.792 0,0"
                         style="fill:#a7a9ac;fill-opacity:1;fill-rule:nonzero;stroke:none"
                         id="path1600" /></g><g
                       id="g1602"
                       transform="translate(139.398,617.896)"><path
                         d="M 0,0 C 1.369,0.79 3.114,0.321 3.905,-1.05 4.693,-2.417 4.229,-4.167 2.861,-4.956 1.491,-5.748 -0.257,-5.277 -1.047,-3.907 -1.837,-2.54 -1.37,-0.792 0,0 Z"
                         style="fill:none;stroke:#a7a9ac;stroke-width:2;stroke-linecap:butt;stroke-linejoin:miter;stroke-miterlimit:10;stroke-dasharray:none;stroke-opacity:1"
                         id="path1604" /></g><g
                       id="g1606"
                       transform="translate(111.784,667.031)"><path
                         d="M 0,0 -24.558,42.852"
                         style="fill:none;stroke:#00a650;stroke-width:4;stroke-linecap:butt;stroke-linejoin:miter;stroke-miterlimit:10;stroke-dasharray:none;stroke-opacity:1"
                         id="path1608" /></g><g
                       id="g1610"
                       transform="translate(92.836,709.444)"><path
                         d="M 0,0 -12.657,12.738 -8.066,-4.623 0,0"
                         style="fill:#00a650;fill-opacity:1;fill-rule:nonzero;stroke:none"
                         id="path1612" /></g><g
                       id="g1614"
                       transform="translate(392.27,174.496)"><path
                         d="M 0,0 15.297,-26.695"
                         style="fill:none;stroke:#231f20;stroke-width:2;stroke-linecap:butt;stroke-linejoin:miter;stroke-miterlimit:10;stroke-dasharray:none;stroke-opacity:1"
                         id="path1616" /></g><g
                       id="g1618"
                       transform="translate(402.659,148.186)"><path
                         d="M 0,0 11.075,-11.146 7.058,4.044 0,0"
                         style="fill:#231f20;fill-opacity:1;fill-rule:nonzero;stroke:none"
                         id="path1620" /></g><g
                       id="g1622"
                       transform="translate(117.222,661.113)"><path
                         d="M 0,0 27.928,17.377"
                         style="fill:none;stroke:#231f20;stroke-width:2;stroke-linecap:butt;stroke-linejoin:miter;stroke-miterlimit:10;stroke-dasharray:none;stroke-opacity:1"
                         id="path1624" /></g><g
                       id="g1626"
                       transform="translate(144.944,673.571)"><path
                         d="M 0,0 10.738,11.471 -4.298,6.907 0,0"
                         style="fill:#231f20;fill-opacity:1;fill-rule:nonzero;stroke:none"
                         id="path1628" /></g><g
                       id="g1630"
                       transform="translate(426.929,199.567)"><path
                         d="M 0,0 -23.147,-13.264"
                         style="fill:none;stroke:#231f20;stroke-width:2;stroke-linecap:butt;stroke-linejoin:miter;stroke-miterlimit:10;stroke-dasharray:none;stroke-opacity:1"
                         id="path1632" /></g><g
                       id="g1634"
                       transform="translate(404.167,191.211)"><path
                         d="M 0,0 -11.146,-11.075 4.044,-7.058 0,0"
                         style="fill:#231f20;fill-opacity:1;fill-rule:nonzero;stroke:none"
                         id="path1636" /></g><g
                       id="g1638"
                       transform="translate(130.133,671.654)"><path
                         d="m 0,0 c -8.168,7.476 -20.85,6.918 -28.325,-1.248 -5.238,-5.721 -6.533,-13.657 -4.031,-20.468"
                         style="fill:none;stroke:#00a650;stroke-width:4;stroke-linecap:butt;stroke-linejoin:miter;stroke-miterlimit:10;stroke-dasharray:none;stroke-opacity:1"
                         id="path1640" /></g><g
                       id="g1642"
                       transform="translate(92.544,650.021)"><path
                         d="M 0,0 14.053,-11.18 7.474,5.529 0,0"
                         style="fill:#00a650;fill-opacity:1;fill-rule:nonzero;stroke:none"
                         id="path1644" /></g><g
                       id="g1646"
                       transform="translate(374.998,169.024)"><path
                         d="m 0,0 c 4.004,-10.323 15.619,-15.447 25.94,-11.444 7.232,2.804 11.912,9.343 12.69,16.557"
                         style="fill:none;stroke:#00a650;stroke-width:4;stroke-linecap:butt;stroke-linejoin:miter;stroke-miterlimit:10;stroke-dasharray:none;stroke-opacity:1"
                         id="path1648" /></g><g
                       id="g1650"
                       transform="translate(418.282,171.742)"><path
                         d="M 0,0 -7.636,16.252 -9.151,-1.641 0,0"
                         style="fill:#00a650;fill-opacity:1;fill-rule:nonzero;stroke:none"
                         id="path1652" /></g><text
                       transform="matrix(0,1,0.99831345,0,125.0892,709.8009)"
                       style="font-variant:normal;font-weight:normal;font-stretch:normal;font-size:24.0135px;font-family:'Times New Roman';-inkscape-font-specification:TimesNewRomanPSMT;writing-mode:lr-tb;fill:#020303;fill-opacity:1;fill-rule:nonzero;stroke:none"
                       id="text1656"><tspan
                         x="0"
                         y="0"
                         id="tspan1654">1</tspan></text><text
                       transform="matrix(0,1,0.99831429,0,117.2222,694.6047)"
                       style="font-style:italic;font-variant:normal;font-weight:bold;font-stretch:normal;font-size:30.017px;font-family:Euclid;-inkscape-font-specification:Euclid-BoldItalic;writing-mode:lr-tb;fill:#020303;fill-opacity:1;fill-rule:nonzero;stroke:none"
                       id="text1660"><tspan
                         x="0"
                         y="0"
                         id="tspan1658">q</tspan></text><text
                       transform="matrix(0,1,0.99831429,0,331.66176,313.41882)"
                       style="font-style:italic;font-variant:normal;font-weight:normal;font-stretch:normal;font-size:30.017px;font-family:'Euclid Symbol';-inkscape-font-specification:EuclidSymbol-Italic;writing-mode:lr-tb;fill:#020303;fill-opacity:1;fill-rule:nonzero;stroke:none"
                       id="text1664"><tspan
                         x="0"
                         y="0"
                         id="tspan1662">b</tspan></text><path
                       d="m 395.308,413.527 h 29.334 v 25.332 h -29.334 z"
                       style="fill:#ffffff;fill-opacity:1;fill-rule:nonzero;stroke:none"
                       id="path1666" /><text
                       transform="matrix(0,1,1,0,420.3078,417.5263)"
                       style="font-style:italic;font-variant:normal;font-weight:normal;font-stretch:normal;font-size:30.0001px;font-family:'Times New Roman';-inkscape-font-specification:TimesNewRomanPS-ItalicMT;writing-mode:lr-tb;fill:#231f20;fill-opacity:1;fill-rule:nonzero;stroke:none"
                       id="text1670"><tspan
                         x="0"
                         y="0"
                         id="tspan1668">L</tspan></text><text
                       transform="matrix(0,1,0.99831345,0,391.6457,140.0397)"
                       style="font-variant:normal;font-weight:normal;font-stretch:normal;font-size:24.0135px;font-family:'Times New Roman';-inkscape-font-specification:TimesNewRomanPSMT;writing-mode:lr-tb;fill:#020303;fill-opacity:1;fill-rule:nonzero;stroke:none"
                       id="text1674"><tspan
                         x="0"
                         y="0"
                         id="tspan1672">2</tspan></text><text
                       transform="matrix(0,1,0.99831429,0,383.7787,122.2197)"
                       style="font-style:italic;font-variant:normal;font-weight:bold;font-stretch:normal;font-size:30.017px;font-family:Euclid;-inkscape-font-specification:Euclid-BoldItalic;writing-mode:lr-tb;fill:#020303;fill-opacity:1;fill-rule:nonzero;stroke:none"
                       id="text1678"><tspan
                         x="0"
                         y="0"
                         id="tspan1676">q</tspan></text><text
                       transform="matrix(0,1,0.99831345,0,93.424,669.2787)"
                       style="font-variant:normal;font-weight:normal;font-stretch:normal;font-size:24.0135px;font-family:'Times New Roman';-inkscape-font-specification:TimesNewRomanPSMT;writing-mode:lr-tb;fill:#020303;fill-opacity:1;fill-rule:nonzero;stroke:none"
                       id="text1682"><tspan
                         x="0"
                         y="0"
                         id="tspan1680">3</tspan></text><text
                       transform="matrix(0,1,0.99831429,0,85.5567,652.2007)"
                       style="font-style:italic;font-variant:normal;font-weight:bold;font-stretch:normal;font-size:30.017px;font-family:Euclid;-inkscape-font-specification:Euclid-BoldItalic;writing-mode:lr-tb;fill:#020303;fill-opacity:1;fill-rule:nonzero;stroke:none"
                       id="text1686"><tspan
                         x="0"
                         y="0"
                         id="tspan1684">q</tspan></text><text
                       transform="matrix(-0.49999801,0.86602655,0.86602655,0.49999801,363.3027,208.8619)"
                       style="font-style:italic;font-variant:normal;font-weight:normal;font-stretch:normal;font-size:30.0001px;font-family:'Times New Roman';-inkscape-font-specification:TimesNewRomanPS-ItalicMT;writing-mode:lr-tb;fill:#231f20;fill-opacity:1;fill-rule:nonzero;stroke:none"
                       id="text1690"><tspan
                         x="0"
                         y="0"
                         id="tspan1688">x</tspan></text><g
                       id="g1692"
                       transform="translate(370.07,213.579)"><path
                         d="M 0,0 20.778,-36.179 -10.664,-54.238"
                         style="fill:none;stroke:#231f20;stroke-width:2;stroke-linecap:butt;stroke-linejoin:miter;stroke-miterlimit:10;stroke-dasharray:none;stroke-opacity:1"
                         id="path1694" /></g><g
                       id="g1696"
                       transform="translate(367.924,209.148)"><path
                         d="M 0,0 -4.031,15.187 7.055,4.052 0,0"
                         style="fill:#231f20;fill-opacity:1;fill-rule:nonzero;stroke:none"
                         id="path1698" /></g><g
                       id="g1700"
                       transform="translate(359.786,164.25)"><path
                         d="M 0,0 -11.135,-11.086 4.051,-7.054 0,0"
                         style="fill:#231f20;fill-opacity:1;fill-rule:nonzero;stroke:none"
                         id="path1702" /></g><text
                       transform="matrix(-0.49999801,0.86602655,0.86602655,0.49999801,356.2897,165.6368)"
                       style="font-style:italic;font-variant:normal;font-weight:normal;font-stretch:normal;font-size:30.0001px;font-family:'Times New Roman';-inkscape-font-specification:TimesNewRomanPS-ItalicMT;writing-mode:lr-tb;fill:#231f20;fill-opacity:1;fill-rule:nonzero;stroke:none"
                       id="text1706"><tspan
                         x="0"
                         y="0"
                         id="tspan1704">y</tspan></text><text
                       transform="matrix(0,1,0.99831429,0,75.3439,609.5526)"
                       style="font-style:italic;font-variant:normal;font-weight:normal;font-stretch:normal;font-size:30.017px;font-family:'Times New Roman';-inkscape-font-specification:TimesNewRomanPS-ItalicMT;writing-mode:lr-tb;fill:#020303;fill-opacity:1;fill-rule:nonzero;stroke:none"
                       id="text1710"><tspan
                         x="0"
                         y="0"
                         id="tspan1708">L</tspan></text><text
                       transform="matrix(0,1,0.99831429,0,75.3439,583.82803)"
                       style="font-style:italic;font-variant:normal;font-weight:normal;font-stretch:normal;font-size:30.017px;font-family:'Euclid Symbol';-inkscape-font-specification:EuclidSymbol-Italic;writing-mode:lr-tb;fill:#020303;fill-opacity:1;fill-rule:nonzero;stroke:none"
                       id="text1714"><tspan
                         x="0"
                         y="0"
                         id="tspan1712">D</tspan></text></g></g></g></g></g></g></g></g><text
       transform="matrix(1,0,0,-1,279.212,4.428)"
       style="font-variant:normal;font-weight:normal;font-size:4.981px;font-family:CMSY5;-inkscape-font-specification:CMSY5;writing-mode:lr-tb;fill:#ffffff;fill-opacity:1;fill-rule:nonzero;stroke:none"
       id="text1730"><tspan
         x="0"
         y="0"
         id="tspan1728"></tspan></text></g></svg>
