<?xml version="1.0" encoding="UTF-8" standalone="no"?>
<!-- Created with Inkscape (http://www.inkscape.org/) -->

<svg
   xmlns:dc="http://purl.org/dc/elements/1.1/"
   xmlns:cc="http://creativecommons.org/ns#"
   xmlns:rdf="http://www.w3.org/1999/02/22-rdf-syntax-ns#"
   xmlns:svg="http://www.w3.org/2000/svg"
   xmlns="http://www.w3.org/2000/svg"
   xmlns:sodipodi="http://sodipodi.sourceforge.net/DTD/sodipodi-0.dtd"
   xmlns:inkscape="http://www.inkscape.org/namespaces/inkscape"
   version="1.1"
   id="svg815"
   xml:space="preserve"
   width="151.52631"
   height="149.50258"
   viewBox="0 0 151.52631 149.50258"
   sodipodi:docname="T_sect.svg"
   inkscape:version="0.92.4 (5da689c313, 2019-01-14)"
   inkscape:export-filename="C:\Users\claud\depot\fcf\FEDEASdoc\docs\img\T-600.png"
   inkscape:export-xdpi="600"
   inkscape:export-ydpi="600"><metadata
     id="metadata821"><rdf:RDF><cc:Work
         rdf:about=""><dc:format>image/svg+xml</dc:format><dc:type
           rdf:resource="http://purl.org/dc/dcmitype/StillImage" /><dc:title /></cc:Work></rdf:RDF></metadata><defs
     id="defs819"><clipPath
       clipPathUnits="userSpaceOnUse"
       id="clipPath859"><path
         d="M 0,0 H 566.129 V 558.568 H 0 Z"
         id="path857"
         inkscape:connector-curvature="0" /></clipPath><clipPath
       clipPathUnits="userSpaceOnUse"
       id="clipPath871"><path
         d="m 124.757,34.5278 h 566.13 V 593.097 h -566.13 z"
         id="path869"
         inkscape:connector-curvature="0" /></clipPath><clipPath
       clipPathUnits="userSpaceOnUse"
       id="clipPath881"><path
         d="M 0,0 H 1008 V 768 H 0 Z"
         id="path879"
         inkscape:connector-curvature="0" /></clipPath><clipPath
       clipPathUnits="userSpaceOnUse"
       id="clipPath1577"><path
         d="M 0,0 H 565.184 V 557.623 H 0 Z"
         id="path1575"
         inkscape:connector-curvature="0" /></clipPath><clipPath
       clipPathUnits="userSpaceOnUse"
       id="clipPath1589"><path
         d="M 126.647,37.3632 H 691.832 V 594.988 H 126.647 Z"
         id="path1587"
         inkscape:connector-curvature="0" /></clipPath><clipPath
       clipPathUnits="userSpaceOnUse"
       id="clipPath1599"><path
         d="M 0,0 H 1008 V 768 H 0 Z"
         id="path1597"
         inkscape:connector-curvature="0" /></clipPath></defs><sodipodi:namedview
     pagecolor="#ffffff"
     bordercolor="#666666"
     borderopacity="1"
     objecttolerance="10"
     gridtolerance="10"
     guidetolerance="10"
     inkscape:pageopacity="0"
     inkscape:pageshadow="2"
     inkscape:window-width="2131"
     inkscape:window-height="1106"
     id="namedview817"
     showgrid="false"
     inkscape:zoom="2.9765624"
     inkscape:cx="82.684778"
     inkscape:cy="55.064397"
     inkscape:window-x="259"
     inkscape:window-y="50"
     inkscape:window-maximized="0"
     inkscape:current-layer="g865" /><g
     id="g823"
     inkscape:groupmode="layer"
     inkscape:label="Lecture 23H - Section Analysis with FEDEASLab"
     transform="matrix(1.3333333,0,0,-1.3333333,-63.051998,297.39991)"><g
   id="g851"
   transform="matrix(0.20074,0,0,0.20074,47.289,110.923)"><g
     id="g865"
     transform="translate(-122.2466,-35.783198)"><g
       id="g1057"
       transform="matrix(1.2923727,0,0,1.2581732,-142.11554,-28.660896)"><g
         transform="matrix(0.75,0,0,-0.75,374.08987,374.88592)"
         id="g1059"><path
           inkscape:connector-curvature="0"
           id="path1061"
           style="fill:#e6e6e6;fill-opacity:1;fill-rule:nonzero;stroke:none"
           d="M 0,0 V -111.542 H -209.14 V 0 Z M 348.567,0 V -111.542 H 139.427 V 0 Z M 139.427,390.395 V -111.542 H 0 v 501.937 z" /></g></g><g
       id="g1063"
       transform="matrix(1.2923727,0,0,1.2581732,-142.11554,-28.660896)"><g
         transform="matrix(0.75,0,0,-0.75,217.23457,458.54205)"
         id="g1065"><path
           inkscape:connector-curvature="0"
           id="path1067"
           style="fill:none;stroke:#787878;stroke-width:2.5999999;stroke-linecap:butt;stroke-linejoin:bevel;stroke-miterlimit:1;stroke-dasharray:8, 8;stroke-dashoffset:0;stroke-opacity:1"
           d="M 0,0 H 209.14 V 111.542 H 0 V 0" /></g><g
         transform="matrix(0.75,0,0,-0.75,478.66012,458.54205)"
         id="g1069"><path
           inkscape:connector-curvature="0"
           id="path1071"
           style="fill:none;stroke:#787878;stroke-width:2.5999999;stroke-linecap:butt;stroke-linejoin:bevel;stroke-miterlimit:1;stroke-dasharray:8, 8;stroke-dashoffset:0;stroke-opacity:1"
           d="M 0,0 H 209.14 V 111.542 H 0 V 0" /></g><g
         transform="matrix(0.75,0,0,-0.75,374.08987,458.54205)"
         id="g1073"><path
           inkscape:connector-curvature="0"
           id="path1075"
           style="fill:none;stroke:#787878;stroke-width:2.5999999;stroke-linecap:butt;stroke-linejoin:bevel;stroke-miterlimit:1;stroke-dasharray:8, 8;stroke-dashoffset:0;stroke-opacity:1"
           d="M 0,0 H 139.427 V 501.937 H 0 V 0" /></g><g
         transform="matrix(0.75,0,0,-0.75,217.23457,458.54205)"
         id="g1077"><path
           inkscape:connector-curvature="0"
           id="path1079"
           style="fill:none;stroke:#000000;stroke-width:3.46700001;stroke-linecap:square;stroke-linejoin:miter;stroke-miterlimit:10;stroke-dasharray:none;stroke-opacity:1"
           d="M 0,0 V 111.542 H 209.14 V 501.937 H 348.567 V 111.542 H 557.708 V 0 H 0" /></g></g><g
       id="g1081"
       transform="matrix(1.2923727,0,0,1.2581732,-142.11554,-28.660896)"><g
         transform="matrix(0.75,0,0,-0.75,362.54969,395.79993)"
         id="g1083"><path
           inkscape:connector-curvature="0"
           id="path1085"
           style="fill:#ff0000;fill-opacity:1;fill-rule:nonzero;stroke:none"
           d="m 0,0 c 0,-5.94 -4.815,-10.756 -10.756,-10.756 -5.94,0 -10.755,4.816 -10.755,10.756 0,5.94 4.815,10.756 10.755,10.756 C -4.815,10.756 0,5.94 0,0 Z" /></g></g><g
       id="g1087"
       transform="matrix(1.2923727,0,0,1.2581732,-142.11554,-28.660896)"><g
         transform="matrix(0.75,0,0,-0.75,362.54969,395.79993)"
         id="g1089"><path
           inkscape:connector-curvature="0"
           id="path1091"
           style="fill:none;stroke:#ff0000;stroke-width:1;stroke-linecap:butt;stroke-linejoin:miter;stroke-miterlimit:10;stroke-dasharray:none;stroke-opacity:1"
           d="m 0,0 c 0,-5.94 -4.815,-10.756 -10.756,-10.756 -5.94,0 -10.755,4.816 -10.755,10.756 0,5.94 4.815,10.756 10.755,10.756 C -4.815,10.756 0,5.94 0,0 Z" /></g></g><g
       id="g1093"
       transform="matrix(1.2923727,0,0,1.2581732,-142.11554,-28.660896)"><g
         transform="matrix(0.75,0,0,-0.75,323.33584,395.79993)"
         id="g1095"><path
           inkscape:connector-curvature="0"
           id="path1097"
           style="fill:#ff0000;fill-opacity:1;fill-rule:nonzero;stroke:none"
           d="m 0,0 c 0,-5.94 -4.815,-10.756 -10.756,-10.756 -5.94,0 -10.755,4.816 -10.755,10.756 0,5.94 4.815,10.756 10.755,10.756 C -4.815,10.756 0,5.94 0,0 Z" /></g></g><g
       id="g1099"
       transform="matrix(1.2923727,0,0,1.2581732,-142.11554,-28.660896)"><g
         transform="matrix(0.75,0,0,-0.75,323.33584,395.79993)"
         id="g1101"><path
           inkscape:connector-curvature="0"
           id="path1103"
           style="fill:none;stroke:#ff0000;stroke-width:1;stroke-linecap:butt;stroke-linejoin:miter;stroke-miterlimit:10;stroke-dasharray:none;stroke-opacity:1"
           d="m 0,0 c 0,-5.94 -4.815,-10.756 -10.756,-10.756 -5.94,0 -10.755,4.816 -10.755,10.756 0,5.94 4.815,10.756 10.755,10.756 C -4.815,10.756 0,5.94 0,0 Z" /></g></g><g
       id="g1105"
       transform="matrix(1.2923727,0,0,1.2581732,-142.11554,-28.660896)"><g
         transform="matrix(0.75,0,0,-0.75,284.12202,395.79993)"
         id="g1107"><path
           inkscape:connector-curvature="0"
           id="path1109"
           style="fill:#ff0000;fill-opacity:1;fill-rule:nonzero;stroke:none"
           d="m 0,0 c 0,-5.94 -4.815,-10.756 -10.756,-10.756 -5.94,0 -10.755,4.816 -10.755,10.756 0,5.94 4.815,10.756 10.755,10.756 C -4.815,10.756 0,5.94 0,0 Z" /></g></g><g
       id="g1111"
       transform="matrix(1.2923727,0,0,1.2581732,-142.11554,-28.660896)"><g
         transform="matrix(0.75,0,0,-0.75,284.12202,395.79993)"
         id="g1113"><path
           inkscape:connector-curvature="0"
           id="path1115"
           style="fill:none;stroke:#ff0000;stroke-width:1;stroke-linecap:butt;stroke-linejoin:miter;stroke-miterlimit:10;stroke-dasharray:none;stroke-opacity:1"
           d="m 0,0 c 0,-5.94 -4.815,-10.756 -10.756,-10.756 -5.94,0 -10.755,4.816 -10.755,10.756 0,5.94 4.815,10.756 10.755,10.756 C -4.815,10.756 0,5.94 0,0 Z" /></g></g><g
       id="g1117"
       transform="matrix(1.2923727,0,0,1.2581732,-142.11554,-28.660896)"><g
         transform="matrix(0.75,0,0,-0.75,244.90818,395.79993)"
         id="g1119"><path
           inkscape:connector-curvature="0"
           id="path1121"
           style="fill:#ff0000;fill-opacity:1;fill-rule:nonzero;stroke:none"
           d="m 0,0 c 0,-5.94 -4.815,-10.756 -10.756,-10.756 -5.94,0 -10.755,4.816 -10.755,10.756 0,5.94 4.815,10.756 10.755,10.756 C -4.815,10.756 0,5.94 0,0 Z" /></g></g><g
       id="g1123"
       transform="matrix(1.2923727,0,0,1.2581732,-142.11554,-28.660896)"><g
         transform="matrix(0.75,0,0,-0.75,244.90818,395.79993)"
         id="g1125"><path
           inkscape:connector-curvature="0"
           id="path1127"
           style="fill:none;stroke:#ff0000;stroke-width:1;stroke-linecap:butt;stroke-linejoin:miter;stroke-miterlimit:10;stroke-dasharray:none;stroke-opacity:1"
           d="m 0,0 c 0,-5.94 -4.815,-10.756 -10.756,-10.756 -5.94,0 -10.755,4.816 -10.755,10.756 0,5.94 4.815,10.756 10.755,10.756 C -4.815,10.756 0,5.94 0,0 Z" /></g></g><g
       id="g1129"
       transform="matrix(1.2923727,0,0,1.2581732,-142.11554,-28.660896)"><g
         transform="matrix(0.75,0,0,-0.75,362.54969,437.62802)"
         id="g1131"><path
           inkscape:connector-curvature="0"
           id="path1133"
           style="fill:#ff0000;fill-opacity:1;fill-rule:nonzero;stroke:none"
           d="m 0,0 c 0,-5.94 -4.815,-10.756 -10.756,-10.756 -5.94,0 -10.755,4.816 -10.755,10.756 0,5.94 4.815,10.756 10.755,10.756 C -4.815,10.756 0,5.94 0,0 Z" /></g></g><g
       id="g1135"
       transform="matrix(1.2923727,0,0,1.2581732,-142.11554,-28.660896)"><g
         transform="matrix(0.75,0,0,-0.75,362.54969,437.62802)"
         id="g1137"><path
           inkscape:connector-curvature="0"
           id="path1139"
           style="fill:none;stroke:#ff0000;stroke-width:1;stroke-linecap:butt;stroke-linejoin:miter;stroke-miterlimit:10;stroke-dasharray:none;stroke-opacity:1"
           d="m 0,0 c 0,-5.94 -4.815,-10.756 -10.756,-10.756 -5.94,0 -10.755,4.816 -10.755,10.756 0,5.94 4.815,10.756 10.755,10.756 C -4.815,10.756 0,5.94 0,0 Z" /></g></g><g
       id="g1141"
       transform="matrix(1.2923727,0,0,1.2581732,-142.11554,-28.660896)"><g
         transform="matrix(0.75,0,0,-0.75,323.33584,437.62802)"
         id="g1143"><path
           inkscape:connector-curvature="0"
           id="path1145"
           style="fill:#ff0000;fill-opacity:1;fill-rule:nonzero;stroke:none"
           d="m 0,0 c 0,-5.94 -4.815,-10.756 -10.756,-10.756 -5.94,0 -10.755,4.816 -10.755,10.756 0,5.94 4.815,10.756 10.755,10.756 C -4.815,10.756 0,5.94 0,0 Z" /></g></g><g
       id="g1147"
       transform="matrix(1.2923727,0,0,1.2581732,-142.11554,-28.660896)"><g
         transform="matrix(0.75,0,0,-0.75,323.33584,437.62802)"
         id="g1149"><path
           inkscape:connector-curvature="0"
           id="path1151"
           style="fill:none;stroke:#ff0000;stroke-width:1;stroke-linecap:butt;stroke-linejoin:miter;stroke-miterlimit:10;stroke-dasharray:none;stroke-opacity:1"
           d="m 0,0 c 0,-5.94 -4.815,-10.756 -10.756,-10.756 -5.94,0 -10.755,4.816 -10.755,10.756 0,5.94 4.815,10.756 10.755,10.756 C -4.815,10.756 0,5.94 0,0 Z" /></g></g><g
       id="g1153"
       transform="matrix(1.2923727,0,0,1.2581732,-142.11554,-28.660896)"><g
         transform="matrix(0.75,0,0,-0.75,284.12202,437.62802)"
         id="g1155"><path
           inkscape:connector-curvature="0"
           id="path1157"
           style="fill:#ff0000;fill-opacity:1;fill-rule:nonzero;stroke:none"
           d="m 0,0 c 0,-5.94 -4.815,-10.756 -10.756,-10.756 -5.94,0 -10.755,4.816 -10.755,10.756 0,5.94 4.815,10.756 10.755,10.756 C -4.815,10.756 0,5.94 0,0 Z" /></g></g><g
       id="g1159"
       transform="matrix(1.2923727,0,0,1.2581732,-142.11554,-28.660896)"><g
         transform="matrix(0.75,0,0,-0.75,284.12202,437.62802)"
         id="g1161"><path
           inkscape:connector-curvature="0"
           id="path1163"
           style="fill:none;stroke:#ff0000;stroke-width:1;stroke-linecap:butt;stroke-linejoin:miter;stroke-miterlimit:10;stroke-dasharray:none;stroke-opacity:1"
           d="m 0,0 c 0,-5.94 -4.815,-10.756 -10.756,-10.756 -5.94,0 -10.755,4.816 -10.755,10.756 0,5.94 4.815,10.756 10.755,10.756 C -4.815,10.756 0,5.94 0,0 Z" /></g></g><g
       id="g1165"
       transform="matrix(1.2923727,0,0,1.2581732,-142.11554,-28.660896)"><g
         transform="matrix(0.75,0,0,-0.75,244.90818,437.62802)"
         id="g1167"><path
           inkscape:connector-curvature="0"
           id="path1169"
           style="fill:#ff0000;fill-opacity:1;fill-rule:nonzero;stroke:none"
           d="m 0,0 c 0,-5.94 -4.815,-10.756 -10.756,-10.756 -5.94,0 -10.755,4.816 -10.755,10.756 0,5.94 4.815,10.756 10.755,10.756 C -4.815,10.756 0,5.94 0,0 Z" /></g></g><g
       id="g1171"
       transform="matrix(1.2923727,0,0,1.2581732,-142.11554,-28.660896)"><g
         transform="matrix(0.75,0,0,-0.75,244.90818,437.62802)"
         id="g1173"><path
           inkscape:connector-curvature="0"
           id="path1175"
           style="fill:none;stroke:#ff0000;stroke-width:1;stroke-linecap:butt;stroke-linejoin:miter;stroke-miterlimit:10;stroke-dasharray:none;stroke-opacity:1"
           d="m 0,0 c 0,-5.94 -4.815,-10.756 -10.756,-10.756 -5.94,0 -10.755,4.816 -10.755,10.756 0,5.94 4.815,10.756 10.755,10.756 C -4.815,10.756 0,5.94 0,0 Z" /></g></g><g
       id="g1177"
       transform="matrix(1.2923727,0,0,1.2581732,-142.11554,-28.660896)"><g
         transform="matrix(0.75,0,0,-0.75,623.97522,395.79993)"
         id="g1179"><path
           inkscape:connector-curvature="0"
           id="path1181"
           style="fill:#ff0000;fill-opacity:1;fill-rule:nonzero;stroke:none"
           d="m 0,0 c 0,-5.94 -4.815,-10.756 -10.756,-10.756 -5.94,0 -10.755,4.816 -10.755,10.756 0,5.94 4.815,10.756 10.755,10.756 C -4.815,10.756 0,5.94 0,0 Z" /></g></g><g
       id="g1183"
       transform="matrix(1.2923727,0,0,1.2581732,-142.11554,-28.660896)"><g
         transform="matrix(0.75,0,0,-0.75,623.97522,395.79993)"
         id="g1185"><path
           inkscape:connector-curvature="0"
           id="path1187"
           style="fill:none;stroke:#ff0000;stroke-width:1;stroke-linecap:butt;stroke-linejoin:miter;stroke-miterlimit:10;stroke-dasharray:none;stroke-opacity:1"
           d="m 0,0 c 0,-5.94 -4.815,-10.756 -10.756,-10.756 -5.94,0 -10.755,4.816 -10.755,10.756 0,5.94 4.815,10.756 10.755,10.756 C -4.815,10.756 0,5.94 0,0 Z" /></g></g><g
       id="g1189"
       transform="matrix(1.2923727,0,0,1.2581732,-142.11554,-28.660896)"><g
         transform="matrix(0.75,0,0,-0.75,584.7614,395.79993)"
         id="g1191"><path
           inkscape:connector-curvature="0"
           id="path1193"
           style="fill:#ff0000;fill-opacity:1;fill-rule:nonzero;stroke:none"
           d="m 0,0 c 0,-5.94 -4.815,-10.756 -10.756,-10.756 -5.94,0 -10.755,4.816 -10.755,10.756 0,5.94 4.815,10.756 10.755,10.756 C -4.815,10.756 0,5.94 0,0 Z" /></g></g><g
       id="g1195"
       transform="matrix(1.2923727,0,0,1.2581732,-142.11554,-28.660896)"><g
         transform="matrix(0.75,0,0,-0.75,584.7614,395.79993)"
         id="g1197"><path
           inkscape:connector-curvature="0"
           id="path1199"
           style="fill:none;stroke:#ff0000;stroke-width:1;stroke-linecap:butt;stroke-linejoin:miter;stroke-miterlimit:10;stroke-dasharray:none;stroke-opacity:1"
           d="m 0,0 c 0,-5.94 -4.815,-10.756 -10.756,-10.756 -5.94,0 -10.755,4.816 -10.755,10.756 0,5.94 4.815,10.756 10.755,10.756 C -4.815,10.756 0,5.94 0,0 Z" /></g></g><g
       id="g1201"
       transform="matrix(1.2923727,0,0,1.2581732,-142.11554,-28.660896)"><g
         transform="matrix(0.75,0,0,-0.75,545.54753,395.79993)"
         id="g1203"><path
           inkscape:connector-curvature="0"
           id="path1205"
           style="fill:#ff0000;fill-opacity:1;fill-rule:nonzero;stroke:none"
           d="m 0,0 c 0,-5.94 -4.815,-10.756 -10.756,-10.756 -5.94,0 -10.755,4.816 -10.755,10.756 0,5.94 4.815,10.756 10.755,10.756 C -4.815,10.756 0,5.94 0,0 Z" /></g></g><g
       id="g1207"
       transform="matrix(1.2923727,0,0,1.2581732,-142.11554,-28.660896)"><g
         transform="matrix(0.75,0,0,-0.75,545.54753,395.79993)"
         id="g1209"><path
           inkscape:connector-curvature="0"
           id="path1211"
           style="fill:none;stroke:#ff0000;stroke-width:1;stroke-linecap:butt;stroke-linejoin:miter;stroke-miterlimit:10;stroke-dasharray:none;stroke-opacity:1"
           d="m 0,0 c 0,-5.94 -4.815,-10.756 -10.756,-10.756 -5.94,0 -10.755,4.816 -10.755,10.756 0,5.94 4.815,10.756 10.755,10.756 C -4.815,10.756 0,5.94 0,0 Z" /></g></g><g
       id="g1213"
       transform="matrix(1.2923727,0,0,1.2581732,-142.11554,-28.660896)"><g
         transform="matrix(0.75,0,0,-0.75,506.33371,395.79993)"
         id="g1215"><path
           inkscape:connector-curvature="0"
           id="path1217"
           style="fill:#ff0000;fill-opacity:1;fill-rule:nonzero;stroke:none"
           d="m 0,0 c 0,-5.94 -4.815,-10.756 -10.756,-10.756 -5.94,0 -10.755,4.816 -10.755,10.756 0,5.94 4.815,10.756 10.755,10.756 C -4.815,10.756 0,5.94 0,0 Z" /></g></g><g
       id="g1219"
       transform="matrix(1.2923727,0,0,1.2581732,-142.11554,-28.660896)"><g
         transform="matrix(0.75,0,0,-0.75,506.33371,395.79993)"
         id="g1221"><path
           inkscape:connector-curvature="0"
           id="path1223"
           style="fill:none;stroke:#ff0000;stroke-width:1;stroke-linecap:butt;stroke-linejoin:miter;stroke-miterlimit:10;stroke-dasharray:none;stroke-opacity:1"
           d="m 0,0 c 0,-5.94 -4.815,-10.756 -10.756,-10.756 -5.94,0 -10.755,4.816 -10.755,10.756 0,5.94 4.815,10.756 10.755,10.756 C -4.815,10.756 0,5.94 0,0 Z" /></g></g><g
       id="g1225"
       transform="matrix(1.2923727,0,0,1.2581732,-142.11554,-28.660896)"><g
         transform="matrix(0.75,0,0,-0.75,623.97522,437.62802)"
         id="g1227"><path
           inkscape:connector-curvature="0"
           id="path1229"
           style="fill:#ff0000;fill-opacity:1;fill-rule:nonzero;stroke:none"
           d="m 0,0 c 0,-5.94 -4.815,-10.756 -10.756,-10.756 -5.94,0 -10.755,4.816 -10.755,10.756 0,5.94 4.815,10.756 10.755,10.756 C -4.815,10.756 0,5.94 0,0 Z" /></g></g><g
       id="g1231"
       transform="matrix(1.2923727,0,0,1.2581732,-142.11554,-28.660896)"><g
         transform="matrix(0.75,0,0,-0.75,623.97522,437.62802)"
         id="g1233"><path
           inkscape:connector-curvature="0"
           id="path1235"
           style="fill:none;stroke:#ff0000;stroke-width:1;stroke-linecap:butt;stroke-linejoin:miter;stroke-miterlimit:10;stroke-dasharray:none;stroke-opacity:1"
           d="m 0,0 c 0,-5.94 -4.815,-10.756 -10.756,-10.756 -5.94,0 -10.755,4.816 -10.755,10.756 0,5.94 4.815,10.756 10.755,10.756 C -4.815,10.756 0,5.94 0,0 Z" /></g></g><g
       id="g1237"
       transform="matrix(1.2923727,0,0,1.2581732,-142.11554,-28.660896)"><g
         transform="matrix(0.75,0,0,-0.75,584.7614,437.62802)"
         id="g1239"><path
           inkscape:connector-curvature="0"
           id="path1241"
           style="fill:#ff0000;fill-opacity:1;fill-rule:nonzero;stroke:none"
           d="m 0,0 c 0,-5.94 -4.815,-10.756 -10.756,-10.756 -5.94,0 -10.755,4.816 -10.755,10.756 0,5.94 4.815,10.756 10.755,10.756 C -4.815,10.756 0,5.94 0,0 Z" /></g></g><g
       id="g1243"
       transform="matrix(1.2923727,0,0,1.2581732,-142.11554,-28.660896)"><g
         transform="matrix(0.75,0,0,-0.75,584.7614,437.62802)"
         id="g1245"><path
           inkscape:connector-curvature="0"
           id="path1247"
           style="fill:none;stroke:#ff0000;stroke-width:1;stroke-linecap:butt;stroke-linejoin:miter;stroke-miterlimit:10;stroke-dasharray:none;stroke-opacity:1"
           d="m 0,0 c 0,-5.94 -4.815,-10.756 -10.756,-10.756 -5.94,0 -10.755,4.816 -10.755,10.756 0,5.94 4.815,10.756 10.755,10.756 C -4.815,10.756 0,5.94 0,0 Z" /></g></g><g
       id="g1249"
       transform="matrix(1.2923727,0,0,1.2581732,-142.11554,-28.660896)"><g
         transform="matrix(0.75,0,0,-0.75,545.54753,437.62802)"
         id="g1251"><path
           inkscape:connector-curvature="0"
           id="path1253"
           style="fill:#ff0000;fill-opacity:1;fill-rule:nonzero;stroke:none"
           d="m 0,0 c 0,-5.94 -4.815,-10.756 -10.756,-10.756 -5.94,0 -10.755,4.816 -10.755,10.756 0,5.94 4.815,10.756 10.755,10.756 C -4.815,10.756 0,5.94 0,0 Z" /></g></g><g
       id="g1255"
       transform="matrix(1.2923727,0,0,1.2581732,-142.11554,-28.660896)"><g
         transform="matrix(0.75,0,0,-0.75,545.54753,437.62802)"
         id="g1257"><path
           inkscape:connector-curvature="0"
           id="path1259"
           style="fill:none;stroke:#ff0000;stroke-width:1;stroke-linecap:butt;stroke-linejoin:miter;stroke-miterlimit:10;stroke-dasharray:none;stroke-opacity:1"
           d="m 0,0 c 0,-5.94 -4.815,-10.756 -10.756,-10.756 -5.94,0 -10.755,4.816 -10.755,10.756 0,5.94 4.815,10.756 10.755,10.756 C -4.815,10.756 0,5.94 0,0 Z" /></g></g><g
       id="g1261"
       transform="matrix(1.2923727,0,0,1.2581732,-142.11554,-28.660896)"><g
         transform="matrix(0.75,0,0,-0.75,506.33371,437.62802)"
         id="g1263"><path
           inkscape:connector-curvature="0"
           id="path1265"
           style="fill:#ff0000;fill-opacity:1;fill-rule:nonzero;stroke:none"
           d="m 0,0 c 0,-5.94 -4.815,-10.756 -10.756,-10.756 -5.94,0 -10.755,4.816 -10.755,10.756 0,5.94 4.815,10.756 10.755,10.756 C -4.815,10.756 0,5.94 0,0 Z" /></g></g><g
       id="g1267"
       transform="matrix(1.2923727,0,0,1.2581732,-142.11554,-28.660896)"><g
         transform="matrix(0.75,0,0,-0.75,506.33371,437.62802)"
         id="g1269"><path
           inkscape:connector-curvature="0"
           id="path1271"
           style="fill:none;stroke:#ff0000;stroke-width:1;stroke-linecap:butt;stroke-linejoin:miter;stroke-miterlimit:10;stroke-dasharray:none;stroke-opacity:1"
           d="m 0,0 c 0,-5.94 -4.815,-10.756 -10.756,-10.756 -5.94,0 -10.755,4.816 -10.755,10.756 0,5.94 4.815,10.756 10.755,10.756 C -4.815,10.756 0,5.94 0,0 Z" /></g></g><g
       id="g1273"
       transform="matrix(1.2923727,0,0,1.2581732,-142.11554,-28.660896)"><g
         transform="matrix(0.75,0,0,-0.75,469.29844,119.73454)"
         id="g1275"><path
           inkscape:connector-curvature="0"
           id="path1277"
           style="fill:#ff0000;fill-opacity:1;fill-rule:nonzero;stroke:none"
           d="m 0,0 c 0,-5.94 -4.815,-10.756 -10.756,-10.756 -5.94,0 -10.755,4.816 -10.755,10.756 0,5.94 4.815,10.756 10.755,10.756 C -4.815,10.756 0,5.94 0,0 Z" /></g></g><g
       id="g1279"
       transform="matrix(1.2923727,0,0,1.2581732,-142.11554,-28.660896)"><g
         transform="matrix(0.75,0,0,-0.75,469.29844,119.73454)"
         id="g1281"><path
           inkscape:connector-curvature="0"
           id="path1283"
           style="fill:none;stroke:#ff0000;stroke-width:1;stroke-linecap:butt;stroke-linejoin:miter;stroke-miterlimit:10;stroke-dasharray:none;stroke-opacity:1"
           d="m 0,0 c 0,-5.94 -4.815,-10.756 -10.756,-10.756 -5.94,0 -10.755,4.816 -10.755,10.756 0,5.94 4.815,10.756 10.755,10.756 C -4.815,10.756 0,5.94 0,0 Z" /></g></g><g
       id="g1285"
       transform="matrix(1.2923727,0,0,1.2581732,-142.11554,-28.660896)"><g
         transform="matrix(0.75,0,0,-0.75,434.4417,119.73454)"
         id="g1287"><path
           inkscape:connector-curvature="0"
           id="path1289"
           style="fill:#ff0000;fill-opacity:1;fill-rule:nonzero;stroke:none"
           d="m 0,0 c 0,-5.94 -4.815,-10.756 -10.756,-10.756 -5.94,0 -10.755,4.816 -10.755,10.756 0,5.94 4.815,10.756 10.755,10.756 C -4.815,10.756 0,5.94 0,0 Z" /></g></g><g
       id="g1291"
       transform="matrix(1.2923727,0,0,1.2581732,-142.11554,-28.660896)"><g
         transform="matrix(0.75,0,0,-0.75,434.4417,119.73454)"
         id="g1293"><path
           inkscape:connector-curvature="0"
           id="path1295"
           style="fill:none;stroke:#ff0000;stroke-width:1;stroke-linecap:butt;stroke-linejoin:miter;stroke-miterlimit:10;stroke-dasharray:none;stroke-opacity:1"
           d="m 0,0 c 0,-5.94 -4.815,-10.756 -10.756,-10.756 -5.94,0 -10.755,4.816 -10.755,10.756 0,5.94 4.815,10.756 10.755,10.756 C -4.815,10.756 0,5.94 0,0 Z" /></g></g><g
       id="g1297"
       transform="matrix(1.2923727,0,0,1.2581732,-142.11554,-28.660896)"><g
         transform="matrix(0.75,0,0,-0.75,399.58496,119.73454)"
         id="g1299"><path
           inkscape:connector-curvature="0"
           id="path1301"
           style="fill:#ff0000;fill-opacity:1;fill-rule:nonzero;stroke:none"
           d="m 0,0 c 0,-5.94 -4.815,-10.756 -10.756,-10.756 -5.94,0 -10.755,4.816 -10.755,10.756 0,5.94 4.815,10.756 10.755,10.756 C -4.815,10.756 0,5.94 0,0 Z" /></g></g><g
       id="g1303"
       transform="matrix(1.2923727,0,0,1.2581732,-142.11554,-28.660896)"><g
         transform="matrix(0.75,0,0,-0.75,399.58496,119.73454)"
         id="g1305"><path
           inkscape:connector-curvature="0"
           id="path1307"
           style="fill:none;stroke:#ff0000;stroke-width:1;stroke-linecap:butt;stroke-linejoin:miter;stroke-miterlimit:10;stroke-dasharray:none;stroke-opacity:1"
           d="m 0,0 c 0,-5.94 -4.815,-10.756 -10.756,-10.756 -5.94,0 -10.755,4.816 -10.755,10.756 0,5.94 4.815,10.756 10.755,10.756 C -4.815,10.756 0,5.94 0,0 Z" /></g></g><g
       id="g1309"
       transform="matrix(1.2923727,0,0,1.2581732,-142.11554,-28.660896)"><g
         transform="matrix(0.75,0,0,-0.75,469.29844,195.02513)"
         id="g1311"><path
           inkscape:connector-curvature="0"
           id="path1313"
           style="fill:#ff0000;fill-opacity:1;fill-rule:nonzero;stroke:none"
           d="m 0,0 c 0,-5.94 -4.815,-10.756 -10.756,-10.756 -5.94,0 -10.755,4.816 -10.755,10.756 0,5.94 4.815,10.756 10.755,10.756 C -4.815,10.756 0,5.94 0,0 Z" /></g></g><g
       id="g1315"
       transform="matrix(1.2923727,0,0,1.2581732,-142.11554,-28.660896)"><g
         transform="matrix(0.75,0,0,-0.75,469.29844,195.02513)"
         id="g1317"><path
           inkscape:connector-curvature="0"
           id="path1319"
           style="fill:none;stroke:#ff0000;stroke-width:1;stroke-linecap:butt;stroke-linejoin:miter;stroke-miterlimit:10;stroke-dasharray:none;stroke-opacity:1"
           d="m 0,0 c 0,-5.94 -4.815,-10.756 -10.756,-10.756 -5.94,0 -10.755,4.816 -10.755,10.756 0,5.94 4.815,10.756 10.755,10.756 C -4.815,10.756 0,5.94 0,0 Z" /></g></g><g
       id="g1321"
       transform="matrix(1.2923727,0,0,1.2581732,-142.11554,-28.660896)"><g
         transform="matrix(0.75,0,0,-0.75,434.4417,195.02513)"
         id="g1323"><path
           inkscape:connector-curvature="0"
           id="path1325"
           style="fill:#ff0000;fill-opacity:1;fill-rule:nonzero;stroke:none"
           d="m 0,0 c 0,-5.94 -4.815,-10.756 -10.756,-10.756 -5.94,0 -10.755,4.816 -10.755,10.756 0,5.94 4.815,10.756 10.755,10.756 C -4.815,10.756 0,5.94 0,0 Z" /></g></g><g
       id="g1327"
       transform="matrix(1.2923727,0,0,1.2581732,-142.11554,-28.660896)"><g
         transform="matrix(0.75,0,0,-0.75,434.4417,195.02513)"
         id="g1329"><path
           inkscape:connector-curvature="0"
           id="path1331"
           style="fill:none;stroke:#ff0000;stroke-width:1;stroke-linecap:butt;stroke-linejoin:miter;stroke-miterlimit:10;stroke-dasharray:none;stroke-opacity:1"
           d="m 0,0 c 0,-5.94 -4.815,-10.756 -10.756,-10.756 -5.94,0 -10.755,4.816 -10.755,10.756 0,5.94 4.815,10.756 10.755,10.756 C -4.815,10.756 0,5.94 0,0 Z" /></g></g><g
       id="g1333"
       transform="matrix(1.2923727,0,0,1.2581732,-142.11554,-28.660896)"><g
         transform="matrix(0.75,0,0,-0.75,399.58496,195.02513)"
         id="g1335"><path
           inkscape:connector-curvature="0"
           id="path1337"
           style="fill:#ff0000;fill-opacity:1;fill-rule:nonzero;stroke:none"
           d="m 0,0 c 0,-5.94 -4.815,-10.756 -10.756,-10.756 -5.94,0 -10.755,4.816 -10.755,10.756 0,5.94 4.815,10.756 10.755,10.756 C -4.815,10.756 0,5.94 0,0 Z" /></g></g><g
       id="g1339"
       transform="matrix(1.2923727,0,0,1.2581732,-142.11554,-28.660896)"><g
         transform="matrix(0.75,0,0,-0.75,399.58496,195.02513)"
         id="g1341"><path
           inkscape:connector-curvature="0"
           id="path1343"
           style="fill:none;stroke:#ff0000;stroke-width:1;stroke-linecap:butt;stroke-linejoin:miter;stroke-miterlimit:10;stroke-dasharray:none;stroke-opacity:1"
           d="m 0,0 c 0,-5.94 -4.815,-10.756 -10.756,-10.756 -5.94,0 -10.755,4.816 -10.755,10.756 0,5.94 4.815,10.756 10.755,10.756 C -4.815,10.756 0,5.94 0,0 Z" /></g></g><g
       id="g1345"
       transform="matrix(1.2923727,0,0,1.2581732,-142.11554,-28.660896)"><g
         transform="matrix(0.75,0,0,-0.75,469.29844,270.31567)"
         id="g1347"><path
           inkscape:connector-curvature="0"
           id="path1349"
           style="fill:#ff0000;fill-opacity:1;fill-rule:nonzero;stroke:none"
           d="m 0,0 c 0,-5.94 -4.815,-10.756 -10.756,-10.756 -5.94,0 -10.755,4.816 -10.755,10.756 0,5.94 4.815,10.756 10.755,10.756 C -4.815,10.756 0,5.94 0,0 Z" /></g></g><g
       id="g1351"
       transform="matrix(1.2923727,0,0,1.2581732,-142.11554,-28.660896)"><g
         transform="matrix(0.75,0,0,-0.75,469.29844,270.31567)"
         id="g1353"><path
           inkscape:connector-curvature="0"
           id="path1355"
           style="fill:none;stroke:#ff0000;stroke-width:1;stroke-linecap:butt;stroke-linejoin:miter;stroke-miterlimit:10;stroke-dasharray:none;stroke-opacity:1"
           d="m 0,0 c 0,-5.94 -4.815,-10.756 -10.756,-10.756 -5.94,0 -10.755,4.816 -10.755,10.756 0,5.94 4.815,10.756 10.755,10.756 C -4.815,10.756 0,5.94 0,0 Z" /></g></g><g
       id="g1357"
       transform="matrix(1.2923727,0,0,1.2581732,-142.11554,-28.660896)"><g
         transform="matrix(0.75,0,0,-0.75,434.4417,270.31567)"
         id="g1359"><path
           inkscape:connector-curvature="0"
           id="path1361"
           style="fill:#ff0000;fill-opacity:1;fill-rule:nonzero;stroke:none"
           d="m 0,0 c 0,-5.94 -4.815,-10.756 -10.756,-10.756 -5.94,0 -10.755,4.816 -10.755,10.756 0,5.94 4.815,10.756 10.755,10.756 C -4.815,10.756 0,5.94 0,0 Z" /></g></g><g
       id="g1363"
       transform="matrix(1.2923727,0,0,1.2581732,-142.11554,-28.660896)"><g
         transform="matrix(0.75,0,0,-0.75,434.4417,270.31567)"
         id="g1365"><path
           inkscape:connector-curvature="0"
           id="path1367"
           style="fill:none;stroke:#ff0000;stroke-width:1;stroke-linecap:butt;stroke-linejoin:miter;stroke-miterlimit:10;stroke-dasharray:none;stroke-opacity:1"
           d="m 0,0 c 0,-5.94 -4.815,-10.756 -10.756,-10.756 -5.94,0 -10.755,4.816 -10.755,10.756 0,5.94 4.815,10.756 10.755,10.756 C -4.815,10.756 0,5.94 0,0 Z" /></g></g><g
       id="g1369"
       transform="matrix(1.2923727,0,0,1.2581732,-142.11554,-28.660896)"><g
         transform="matrix(0.75,0,0,-0.75,399.58496,270.31567)"
         id="g1371"><path
           inkscape:connector-curvature="0"
           id="path1373"
           style="fill:#ff0000;fill-opacity:1;fill-rule:nonzero;stroke:none"
           d="m 0,0 c 0,-5.94 -4.815,-10.756 -10.756,-10.756 -5.94,0 -10.755,4.816 -10.755,10.756 0,5.94 4.815,10.756 10.755,10.756 C -4.815,10.756 0,5.94 0,0 Z" /></g></g><g
       id="g1375"
       transform="matrix(1.2923727,0,0,1.2581732,-142.11554,-28.660896)"><g
         transform="matrix(0.75,0,0,-0.75,399.58496,270.31567)"
         id="g1377"><path
           inkscape:connector-curvature="0"
           id="path1379"
           style="fill:none;stroke:#ff0000;stroke-width:1;stroke-linecap:butt;stroke-linejoin:miter;stroke-miterlimit:10;stroke-dasharray:none;stroke-opacity:1"
           d="m 0,0 c 0,-5.94 -4.815,-10.756 -10.756,-10.756 -5.94,0 -10.755,4.816 -10.755,10.756 0,5.94 4.815,10.756 10.755,10.756 C -4.815,10.756 0,5.94 0,0 Z" /></g></g><g
       id="g1381"
       transform="matrix(1.2923727,0,0,1.2581732,-142.11554,-28.660896)"><g
         transform="matrix(0.75,0,0,-0.75,469.29844,345.60624)"
         id="g1383"><path
           inkscape:connector-curvature="0"
           id="path1385"
           style="fill:#ff0000;fill-opacity:1;fill-rule:nonzero;stroke:none"
           d="m 0,0 c 0,-5.94 -4.815,-10.756 -10.756,-10.756 -5.94,0 -10.755,4.816 -10.755,10.756 0,5.94 4.815,10.756 10.755,10.756 C -4.815,10.756 0,5.94 0,0 Z" /></g></g><g
       id="g1387"
       transform="matrix(1.2923727,0,0,1.2581732,-142.11554,-28.660896)"><g
         transform="matrix(0.75,0,0,-0.75,469.29844,345.60624)"
         id="g1389"><path
           inkscape:connector-curvature="0"
           id="path1391"
           style="fill:none;stroke:#ff0000;stroke-width:1;stroke-linecap:butt;stroke-linejoin:miter;stroke-miterlimit:10;stroke-dasharray:none;stroke-opacity:1"
           d="m 0,0 c 0,-5.94 -4.815,-10.756 -10.756,-10.756 -5.94,0 -10.755,4.816 -10.755,10.756 0,5.94 4.815,10.756 10.755,10.756 C -4.815,10.756 0,5.94 0,0 Z" /></g></g><g
       id="g1393"
       transform="matrix(1.2923727,0,0,1.2581732,-142.11554,-28.660896)"><g
         transform="matrix(0.75,0,0,-0.75,434.4417,345.60624)"
         id="g1395"><path
           inkscape:connector-curvature="0"
           id="path1397"
           style="fill:#ff0000;fill-opacity:1;fill-rule:nonzero;stroke:none"
           d="m 0,0 c 0,-5.94 -4.815,-10.756 -10.756,-10.756 -5.94,0 -10.755,4.816 -10.755,10.756 0,5.94 4.815,10.756 10.755,10.756 C -4.815,10.756 0,5.94 0,0 Z" /></g></g><g
       id="g1399"
       transform="matrix(1.2923727,0,0,1.2581732,-142.11554,-28.660896)"><g
         transform="matrix(0.75,0,0,-0.75,434.4417,345.60624)"
         id="g1401"><path
           inkscape:connector-curvature="0"
           id="path1403"
           style="fill:none;stroke:#ff0000;stroke-width:1;stroke-linecap:butt;stroke-linejoin:miter;stroke-miterlimit:10;stroke-dasharray:none;stroke-opacity:1"
           d="m 0,0 c 0,-5.94 -4.815,-10.756 -10.756,-10.756 -5.94,0 -10.755,4.816 -10.755,10.756 0,5.94 4.815,10.756 10.755,10.756 C -4.815,10.756 0,5.94 0,0 Z" /></g></g><g
       id="g1405"
       transform="matrix(1.2923727,0,0,1.2581732,-142.11554,-28.660896)"><g
         transform="matrix(0.75,0,0,-0.75,399.58496,345.60624)"
         id="g1407"><path
           inkscape:connector-curvature="0"
           id="path1409"
           style="fill:#ff0000;fill-opacity:1;fill-rule:nonzero;stroke:none"
           d="m 0,0 c 0,-5.94 -4.815,-10.756 -10.756,-10.756 -5.94,0 -10.755,4.816 -10.755,10.756 0,5.94 4.815,10.756 10.755,10.756 C -4.815,10.756 0,5.94 0,0 Z" /></g></g><g
       id="g1411"
       transform="matrix(1.2923727,0,0,1.2581732,-142.11554,-28.660896)"><g
         transform="matrix(0.75,0,0,-0.75,399.58496,345.60624)"
         id="g1413"><path
           inkscape:connector-curvature="0"
           id="path1415"
           style="fill:none;stroke:#ff0000;stroke-width:1;stroke-linecap:butt;stroke-linejoin:miter;stroke-miterlimit:10;stroke-dasharray:none;stroke-opacity:1"
           d="m 0,0 c 0,-5.94 -4.815,-10.756 -10.756,-10.756 -5.94,0 -10.755,4.816 -10.755,10.756 0,5.94 4.815,10.756 10.755,10.756 C -4.815,10.756 0,5.94 0,0 Z" /></g></g><g
       id="g1417"
       transform="matrix(1.2923727,0,0,1.2581732,-142.11554,-28.660896)"><g
         transform="matrix(0.75,0,0,-0.75,469.29844,420.89679)"
         id="g1419"><path
           inkscape:connector-curvature="0"
           id="path1421"
           style="fill:#ff0000;fill-opacity:1;fill-rule:nonzero;stroke:none"
           d="m 0,0 c 0,-5.94 -4.815,-10.756 -10.756,-10.756 -5.94,0 -10.755,4.816 -10.755,10.756 0,5.94 4.815,10.756 10.755,10.756 C -4.815,10.756 0,5.94 0,0 Z" /></g></g><g
       id="g1423"
       transform="matrix(1.2923727,0,0,1.2581732,-142.11554,-28.660896)"><g
         transform="matrix(0.75,0,0,-0.75,469.29844,420.89679)"
         id="g1425"><path
           inkscape:connector-curvature="0"
           id="path1427"
           style="fill:none;stroke:#ff0000;stroke-width:1;stroke-linecap:butt;stroke-linejoin:miter;stroke-miterlimit:10;stroke-dasharray:none;stroke-opacity:1"
           d="m 0,0 c 0,-5.94 -4.815,-10.756 -10.756,-10.756 -5.94,0 -10.755,4.816 -10.755,10.756 0,5.94 4.815,10.756 10.755,10.756 C -4.815,10.756 0,5.94 0,0 Z" /></g></g><g
       id="g1429"
       transform="matrix(1.2923727,0,0,1.2581732,-142.11554,-28.660896)"><g
         transform="matrix(0.75,0,0,-0.75,434.4417,420.89679)"
         id="g1431"><path
           inkscape:connector-curvature="0"
           id="path1433"
           style="fill:#ff0000;fill-opacity:1;fill-rule:nonzero;stroke:none"
           d="m 0,0 c 0,-5.94 -4.815,-10.756 -10.756,-10.756 -5.94,0 -10.755,4.816 -10.755,10.756 0,5.94 4.815,10.756 10.755,10.756 C -4.815,10.756 0,5.94 0,0 Z" /></g></g><g
       id="g1435"
       transform="matrix(1.2923727,0,0,1.2581732,-142.11554,-28.660896)"><g
         transform="matrix(0.75,0,0,-0.75,434.4417,420.89679)"
         id="g1437"><path
           inkscape:connector-curvature="0"
           id="path1439"
           style="fill:none;stroke:#ff0000;stroke-width:1;stroke-linecap:butt;stroke-linejoin:miter;stroke-miterlimit:10;stroke-dasharray:none;stroke-opacity:1"
           d="m 0,0 c 0,-5.94 -4.815,-10.756 -10.756,-10.756 -5.94,0 -10.755,4.816 -10.755,10.756 0,5.94 4.815,10.756 10.755,10.756 C -4.815,10.756 0,5.94 0,0 Z" /></g></g><g
       id="g1441"
       transform="matrix(1.2923727,0,0,1.2581732,-142.11554,-28.660896)"><g
         transform="matrix(0.75,0,0,-0.75,399.58496,420.89679)"
         id="g1443"><path
           inkscape:connector-curvature="0"
           id="path1445"
           style="fill:#ff0000;fill-opacity:1;fill-rule:nonzero;stroke:none"
           d="m 0,0 c 0,-5.94 -4.815,-10.756 -10.756,-10.756 -5.94,0 -10.755,4.816 -10.755,10.756 0,5.94 4.815,10.756 10.755,10.756 C -4.815,10.756 0,5.94 0,0 Z" /></g></g><g
       id="g1447"
       transform="matrix(1.2923727,0,0,1.2581732,-142.11554,-28.660896)"><g
         transform="matrix(0.75,0,0,-0.75,399.58496,420.89679)"
         id="g1449"><path
           inkscape:connector-curvature="0"
           id="path1451"
           style="fill:none;stroke:#ff0000;stroke-width:1;stroke-linecap:butt;stroke-linejoin:miter;stroke-miterlimit:10;stroke-dasharray:none;stroke-opacity:1"
           d="m 0,0 c 0,-5.94 -4.815,-10.756 -10.756,-10.756 -5.94,0 -10.755,4.816 -10.755,10.756 0,5.94 4.815,10.756 10.755,10.756 C -4.815,10.756 0,5.94 0,0 Z" /></g><g
         transform="matrix(0.75,0,0,-0.75,426.375,328.875)"
         id="g1453"><path
           inkscape:connector-curvature="0"
           id="path1455"
           style="fill:none;stroke:#0000ff;stroke-width:1.73300004;stroke-linecap:butt;stroke-linejoin:round;stroke-miterlimit:10;stroke-dasharray:none;stroke-opacity:1"
           d="M 0,0 H -74.036" /></g></g><g
       id="g1457"
       transform="matrix(1.2923727,0,0,1.2581732,-142.11554,-28.660896)"><g
         transform="matrix(0.75,0,0,-0.75,377.01787,323.93925)"
         id="g1459"><path
           inkscape:connector-curvature="0"
           id="path1461"
           style="fill:#0000ff;fill-opacity:1;fill-rule:nonzero;stroke:none"
           d="m 0,0 v -13.162 l -16.452,6.581 z" /></g></g><g
       id="g1463"
       transform="matrix(1.2923727,0,0,1.2581732,-142.11554,-28.660896)"><g
   transform="matrix(0.75,0,0,-0.75,364.67857,328.875)"
   id="g1465"><path
     inkscape:connector-curvature="0"
     id="path1467"
     style="fill:none;stroke:#0000ff;stroke-width:0.667;stroke-linecap:square;stroke-linejoin:miter;stroke-miterlimit:10;stroke-dasharray:none;stroke-opacity:1"
     d="M 0,0 16.452,-6.581 V 6.581 L 0,0 v 0" /></g><text
   id="text1471"
   style="font-style:italic;font-variant:normal;font-size:24px;font-family:'Times New Roman';-inkscape-font-specification:Times-Italic;writing-mode:lr-tb;fill:#0000ff;fill-opacity:1;fill-rule:nonzero;stroke:none"
   transform="matrix(1,0,0,-1,364.5,312)"><tspan
     id="tspan1469"
     y="0"
     x="0">z</tspan></text>

<g
   transform="matrix(0.75,0,0,-0.75,426.375,328.875)"
   id="g1473"><path
     inkscape:connector-curvature="0"
     id="path1475"
     style="fill:none;stroke:#0000ff;stroke-width:1.73300004;stroke-linecap:butt;stroke-linejoin:round;stroke-miterlimit:10;stroke-dasharray:none;stroke-opacity:1"
     d="M 0,0 V -74.036" /></g></g><g
       id="g1477"
       transform="matrix(1.2923727,0,0,1.2581732,-142.11554,-28.660896)"><g
         transform="matrix(0.75,0,0,-0.75,421.43932,378.23212)"
         id="g1479"><path
           inkscape:connector-curvature="0"
           id="path1481"
           style="fill:#0000ff;fill-opacity:1;fill-rule:nonzero;stroke:none"
           d="M 0,0 H 13.162 L 6.581,-16.452 Z" /></g></g><g
       id="g1483"
       transform="matrix(1.2923727,0,0,1.2581732,-142.11554,-28.660896)"><g
   transform="matrix(0.75,0,0,-0.75,426.375,390.57142)"
   id="g1485"><path
     inkscape:connector-curvature="0"
     id="path1487"
     style="fill:none;stroke:#0000ff;stroke-width:0.667;stroke-linecap:square;stroke-linejoin:miter;stroke-miterlimit:10;stroke-dasharray:none;stroke-opacity:1"
     d="M 0,0 6.581,16.452 H -6.581 L 0,0 v 0" /></g><text
   id="text1491"
   style="font-style:italic;font-variant:normal;font-size:24px;font-family:'Times New Roman';-inkscape-font-specification:Times-Italic;writing-mode:lr-tb;fill:#0000ff;fill-opacity:1;fill-rule:nonzero;stroke:none"
   transform="matrix(1,0,0,-1,434.25,381.75)"><tspan
     id="tspan1489"
     y="0"
     x="0">y</tspan></text>

</g></g></g><text
   transform="matrix(1,0,0,-1,279.212,4.428)"
   style="font-variant:normal;font-weight:normal;font-size:4.98099995px;font-family:CMSY5;-inkscape-font-specification:CMSY5;writing-mode:lr-tb;fill:#ffffff;fill-opacity:1;fill-rule:nonzero;stroke:none"
   id="text2317"><tspan
     x="0"
     y="0"
     id="tspan2315" /></text>

</g></svg>